<svg xmlns="http://www.w3.org/2000/svg" width="16" height="16" viewBox="0 0 16 16"><path style="line-height:normal;text-indent:0;text-align:start;text-decoration-line:none;text-decoration-style:solid;text-decoration-color:#000;text-transform:none;block-progression:tb;white-space:normal;isolation:auto;mix-blend-mode:normal;solid-color:#000;solid-opacity:1" fill-rule="evenodd" d="M 4.9785156 3 A 0.99944388 0.99944388 0 0 0 3.9960938 4.015625 L 3.9960938 7.9628906 A 0.99944388 0.99944388 0 0 0 3.9960938 8.046875 L 3.9960938 11.986328 A 0.99944388 0.99944388 0 1 0 5.9941406 11.986328 L 5.9941406 9 L 9.9921875 9 L 9.9921875 11.986328 A 0.99944388 0.99944388 0 1 0 11.990234 11.986328 L 11.990234 8.1875 A 0.99944388 0.99944388 0 0 0 11.990234 7.8242188 L 11.990234 4.015625 A 0.99944388 0.99944388 0 0 0 10.974609 3 A 0.99944388 0.99944388 0 0 0 9.9921875 4.015625 L 9.9921875 7.0019531 L 5.9941406 7.0019531 L 5.9941406 4.015625 A 0.99944388 0.99944388 0 0 0 4.9785156 3 z " color="#000" enable-background="accumulate" font-family="sans-serif" font-weight="400" overflow="visible"/></svg>